<?xml version="1.0" encoding="UTF-8" standalone="no"?>
<svg
   xmlns:dc="http://purl.org/dc/elements/1.1/"
   xmlns:cc="http://creativecommons.org/ns#"
   xmlns:rdf="http://www.w3.org/1999/02/22-rdf-syntax-ns#"
   xmlns:svg="http://www.w3.org/2000/svg"
   xmlns="http://www.w3.org/2000/svg"
   height="29.769571"
   width="23.847614"
   version="1.1"
   viewBox="0 0 23.847615 29.769571"
   data-name="Calque 1"
   id="Calque_1">
  <defs>
    <style type="text/css">
      @keyframes eyewink {
        0%    { transform: translate(0px,0px); }
        1%,5% { transform: translate(0px,20px); }
        6%    { transform: translate(0px,0px); }
      }
      @keyframes eyewink-2 {
        0%    { transform: translate(0px,0px) scale(1,1); }
        1%,5% { transform: translate(0px,10px) scale(1,0.2); }
        6%    { transform: translate(0px,0px) scale(1,1); }
      }
      @keyframes eyewink-3 {
        0%    { fill: #ffffff; }
        1%,5% { fill: #444444; }
        6%    { fill: #ffffff; }
      }
      #eyebrow {
        animation: eyewink 6s linear infinite;
      }
      #eye {
        animation: eyewink-2 6s linear infinite;
      }
      #eye .cls-2 {
        animation: eyewink-3 6s linear infinite;
      }
    </style>
  </defs>
  <metadata
     id="metadata183">
    <rdf:RDF>
      <cc:Work
         rdf:about="">
        <dc:format>image/svg+xml</dc:format>
        <dc:type
           rdf:resource="http://purl.org/dc/dcmitype/StillImage" />
        <dc:title>clippy</dc:title>
        <cc:license
           rdf:resource="http://creativecommons.org/licenses/by-sa/3.0/fr" />
        <dc:source>https://github.com/leReset/graphism/blob/master/Illustrations/Clippy/clippy.svg</dc:source>
      </cc:Work>
      <cc:License
         rdf:about="http://creativecommons.org/licenses/by-sa/3.0/fr">
        <cc:permits
           rdf:resource="http://creativecommons.org/ns#Reproduction" />
        <cc:permits
           rdf:resource="http://creativecommons.org/ns#Distribution" />
        <cc:requires
           rdf:resource="http://creativecommons.org/ns#Notice" />
        <cc:requires
           rdf:resource="http://creativecommons.org/ns#Attribution" />
        <cc:permits
           rdf:resource="http://creativecommons.org/ns#DerivativeWorks" />
        <cc:requires
           rdf:resource="http://creativecommons.org/ns#ShareAlike" />
      </cc:License>

    </rdf:RDF>
  </metadata>
  <title
     id="title6">clippy</title>
  <g
     transform="matrix(0.06099712,-0.0352167,0.0352167,0.06099712,-3.7938738,4.8257197)"
     id="g65">
    <path
       style="fill:#3679bd"
       d="m 66.660156,50 h 0.0098 16.669922 V 33.339844 H 137.0293 V 16.669922 0 H 83.330078 V 16.660156 H 66.669922 V 33.330078 H 50 V 50 H 33.330078 V 191.67004 400.00977 H 50 v 16.66015 h 16.669922 v 16.66992 H 83.330078 V 450 H 100 v 16.66992 h 55.56055 v -16.66015 h 16.66992 v -16.66993 h -0.01 v -0.01 h 16.66992 v -16.66016 h 16.66993 V 400 h 16.66015 v -64.81055 h 0.01 16.66015 v -64.82031 h 16.66993 V 253.69922 H 238.89062 222.2207 v 16.66992 h -16.66015 v 64.81055 h -0.01 v 0.01 H 188.88086 V 400 H 172.2207 v 16.66992 h -16.66992 v 16.66016 H 100 V 416.66992 H 83.339844 V 400 H 66.669922 l -0.0049,-208.33496 z M 187.0293,50 H 170.36914 V 33.330078 h -16.6582 V 16.669922 h -16.67188 v 16.660156 0.0098 V 50 h 16.66016 v 150 116.66992 h -16.66016 v 16.66016 h -16.66992 v -16.66016 -81.48047 h -16.66992 v 16.66993 H 87.029297 v 64.82031 h 0.0098 v 16.66015 H 103.69922 V 350 h 16.66992 v 16.66992 h 16.66992 V 350 h 16.67188 v -16.66016 h 16.6582 v -16.66992 h 16.66992 L 187.03418,200 Z"
       id="rect44" />
    <rect
       id="rect997"
       height="66.669998"
       width="66.669998"
       y="150"
       x="16.67"
       class="cls-2"
       style="fill:#ffffff" />
    <rect
       class="cls-4"
       x="16.67"
       y="150"
       width="16.67"
       height="16.67"
       id="rect92"
       style="fill:#444444" />
    <rect
       class="cls-4"
       y="116.67"
       width="16.67"
       height="16.67"
       id="rect94"
       x="0"
       style="fill:#444444" />
    <rect
       class="cls-4"
       x="16.67"
       y="200"
       width="16.67"
       height="16.67"
       id="rect96"
       style="fill:#444444" />
    <rect
       class="cls-4"
       x="66.669998"
       y="200"
       width="16.67"
       height="16.67"
       id="rect98"
       style="fill:#444444" />
    <rect
       class="cls-4"
       x="66.669998"
       y="150"
       width="16.67"
       height="16.67"
       id="rect100"
       style="fill:#444444" />
    <rect
       class="cls-4"
       x="33.330002"
       y="166.67"
       width="33.330002"
       height="33.330002"
       id="rect142"
       style="fill:#444444" />
    <rect
       class="cls-4"
       x="83.330002"
       y="166.67"
       width="16.67"
       height="33.330002"
       id="rect144"
       style="fill:#444444" />
    <rect
       class="cls-4"
       y="166.67"
       width="16.67"
       height="33.330002"
       id="rect146"
       x="0"
       style="fill:#444444" />
    <rect
       class="cls-4"
       x="216.67"
       y="-66.669998"
       width="16.67"
       height="33.330002"
       transform="rotate(90)"
       id="rect148"
       style="fill:#444444" />
    <rect
       class="cls-4"
       x="133.33"
       y="-66.669998"
       width="16.67"
       height="33.330002"
       transform="rotate(90)"
       id="rect150"
       style="fill:#444444" />
    <rect
       class="cls-4"
       x="100"
       y="-50"
       width="16.67"
       height="33.330002"
       transform="rotate(90)"
       id="rect152"
       style="fill:#444444" />
    <rect
       class="cls-4"
       x="83.330002"
       y="-88.889999"
       width="16.67"
       height="38.889999"
       transform="rotate(90)"
       id="rect154"
       style="fill:#444444" />
    <g
       id="eyebrow" class="eyebrow">
      <rect
         style="fill:#444444"
         id="rect156"
         transform="scale(-1)"
         height="16.67"
         width="16.67"
         y="-150"
         x="-220.37"
         class="cls-4" />
      <rect
         style="fill:#444444"
         id="rect158"
         transform="rotate(90)"
         height="33.330002"
         width="16.67"
         y="-203.70999"
         x="116.67001"
         class="cls-4" />
      <rect
         style="fill:#444444"
         id="rect160"
         transform="rotate(90)"
         height="38.889999"
         width="16.67"
         y="-170.37"
         x="99.999992"
         class="cls-4" />
    </g>
    <g transform="translate(0 166.67)">
    <g
       id="eye">
      <rect
         style="fill:#ffffff"
         id="rect42"
         height="66.669998"
         width="66.669998"
         y="0"
         x="137.03999"
         class="cls-2" />
      <rect
         style="fill:#444444"
         id="rect162"
         height="16.67"
         width="16.67"
         y="0"
         x="137.03999"
         class="cls-4" />
      <rect
         style="fill:#444444"
         id="rect164"
         height="16.67"
         width="16.67"
         y="50"
         x="137.03999"
         class="cls-4" />
      <rect
         style="fill:#444444"
         id="rect166"
         height="16.67"
         width="16.67"
         y="50"
         x="187.03999"
         class="cls-4" />
      <rect
         style="fill:#444444"
         id="rect168"
         height="16.67"
         width="16.67"
         y="0"
         x="187.03999"
         class="cls-4" />
      <rect
         style="fill:#444444"
         id="rect170"
         height="33.330002"
         width="33.330002"
         y="16.66"
         x="153.7"
         class="cls-4" />
      <rect
         style="fill:#444444"
         id="rect172"
         height="33.330002"
         width="16.67"
         y="16.66"
         x="203.7"
         class="cls-4" />
      <rect
         style="fill:#444444"
         id="rect174"
         height="33.330002"
         width="16.67"
         y="16.66"
         x="120.37"
         class="cls-4" />
      <rect
         style="fill:#444444"
         id="rect176"
         transform="rotate(90)"
         height="33.330002"
         width="16.67"
         y="-187.03999"
         x="66.66"
         class="cls-4" />
      <rect
         style="fill:#444444"
         id="rect178"
         transform="rotate(90)"
         height="33.330002"
         width="16.67"
         y="-187.03"
         x="-16.66"
         class="cls-4" />
    </g>
    </g>
  </g>
</svg>
